<?xml version="1.0" encoding="utf-8"?>
<!-- Generator: Adobe Illustrator 21.0.2, SVG Export Plug-In . SVG Version: 6.00 Build 0)  -->
<svg version="1.1" xmlns="http://www.w3.org/2000/svg" xmlns:xlink="http://www.w3.org/1999/xlink" x="0px" y="0px"
	 viewBox="0 0 32 32" style="enable-background:new 0 0 32 32;" xml:space="preserve">
<style type="text/css">
	.icon-svg-logo-0{opacity:0.51;}
	.icon-svg-logo-1{fill:#A3A3A3;}
	.icon-svg-logo-2{opacity:0.55;fill:#949494;enable-background:new;}
	.icon-svg-logo-3{fill:#1C80D3;}
	.icon-svg-logo-4{opacity:0.33;fill:#949494;enable-background:new;}
	.icon-svg-logo-5{opacity:0.35;fill:#949494;enable-background:new;}
	.icon-svg-logo-6{opacity:0.52;fill:#949494;enable-background:new;}
	.icon-svg-logo-7{fill:#107AF9;}
	.icon-svg-logo-8{opacity:0.38;fill:#949494;enable-background:new;}
	.icon-svg-logo-9{fill:#1B87C9;}
	.icon-svg-logo-10{opacity:0.2;fill:#949494;enable-background:new;}
	.icon-svg-logo-11{fill:#7FF1F7;}
	.icon-svg-logo-12{fill:none;}
	.icon-svg-logo-13{clip-path:url(#ICONSVGLOGOID_2_);}
	.icon-svg-logo-14{fill:#4BD4FF;}
	.icon-svg-logo-15{clip-path:url(#ICONSVGLOGOID_4_);}
	.icon-svg-logo-16{clip-path:url(#ICONSVGLOGOID_6_);}
	.icon-svg-logo-17{clip-path:url(#ICONSVGLOGOID_8_);}
	.icon-svg-logo-18{clip-path:url(#ICONSVGLOGOID_10_);}
	.icon-svg-logo-19{clip-path:url(#ICONSVGLOGOID_12_);}
	.icon-svg-logo-20{clip-path:url(#ICONSVGLOGOID_14_);}
</style>
<g class="icon-svg-logo-0">
	<g>
		
			<ellipse transform="matrix(0.9992 -4.073185e-02 4.073185e-02 0.9992 -1.0795 0.6746)" class="icon-svg-logo-1" cx="16" cy="26.8" rx="15.6" ry="3.5"/>
	</g>
</g>
<polygon class="icon-svg-logo-2" points="2.4,3 3.1,25.9 9.3,24.4 9,14.3 13.9,21.3 19.1,14 19.5,23.9 24.6,22.8 24.6,3.9 19.8,3.9 14.3,12 
	9,3.4 "/>
<polygon class="icon-svg-logo-3" points="3.1,25.9 9.3,24.4 11.8,27.2 4.5,28.1 "/>
<polygon class="icon-svg-logo-4" points="4,3.1 9,3.4 11.6,2.3 3.9,2 2.4,3 "/>
<polygon class="icon-svg-logo-5" points="23.8,2.8 29.5,2.9 24.6,3.9 19.8,3.9 "/>
<path class="icon-svg-logo-6" d="M17.7,23.5"/>
<polyline class="icon-svg-logo-7" points="13.9,21.3 19.1,14 23.4,14.4 17.7,23.5 "/>
<polygon class="icon-svg-logo-8" points="11.6,2.3 9,3.4 14.3,12 17.8,12.5 "/>
<g>
	<polygon class="icon-svg-logo-9" points="3.9,2 2.4,3 3.1,25.9 4.5,28.1 	"/>
	<polygon class="icon-svg-logo-9" points="11.8,18.1 13.9,21.3 17.7,23.5 11.8,15.1 	"/>
	<polygon class="icon-svg-logo-9" points="23,25.8 19.5,23.9 19.1,14 23.4,14.4 	"/>
	<polygon class="icon-svg-logo-9" points="19.8,3.9 14.3,12 17.8,12.5 23.8,2.8 	"/>
	<polygon class="icon-svg-logo-9" points="28.7,25.2 24.6,22.8 19.5,23.9 23,25.8 	"/>
</g>
<polygon class="icon-svg-logo-4" points="29.5,2.9 28.7,25.2 24.6,22.8 24.6,3.9 "/>
<polygon class="icon-svg-logo-10" points="11.8,15.1 9,14.3 9.3,24.4 11.8,27.2 "/>
<polygon class="icon-svg-logo-11" points="3.9,2 4.5,28.1 11.8,27.2 11.8,15.1 17.7,23.5 23.4,14.4 23,25.8 28.7,25.2 29.5,2.9 23.8,2.8 
	17.8,12.5 11.6,2.3 "/>
<polygon class="icon-svg-logo-12" points="3.9,2 4.5,28.1 11.8,27.2 11.8,15.1 17.7,23.5 23.4,14.4 23,25.8 28.7,25.2 29.5,2.9 23.8,2.8 
	17.8,12.5 11.6,2.3 "/>
<g>
	<g>
		<g>
			<g>
				<g>
					<defs>
						<polygon id="ICONSVGLOGOID_1_" points="3.9,2 4.5,28.1 11.8,27.2 11.8,15.1 17.7,23.5 23.4,14.4 23,25.8 28.7,25.2 29.5,2.9 23.8,2.8 
							17.8,12.5 11.6,2.3 						"/>
					</defs>
					<clipPath id="ICONSVGLOGOID_2_">
						<use xlink:href="#ICONSVGLOGOID_1_"  style="overflow:visible;"/>
					</clipPath>
					<g class="icon-svg-logo-13">
						<path class="icon-svg-logo-14" d="M11.4,20.7c0-0.8-0.2-1.5-0.4-2c-0.3-0.9-0.8-1.5-1.3-1.6c1.2,2.5,1.5,4.9,0.8,5.3
							c-0.6,0.3-1.6-0.5-2.7-1.8c-0.6-0.7-1.1-1.5-1.6-2.5C6.1,17.8,6,17.6,6,17.5c-0.1-0.3-0.2-0.5-0.3-0.8
							c-0.1-0.2-0.1-0.3-0.2-0.5c-0.1-0.2-0.1-0.5-0.2-0.7c-0.1-0.4-0.2-0.8-0.2-1.2C4.9,13,5,12,5.5,11.8C6.1,11.6,7,12.4,8,13.9
							c0.1,0.1,0.1,0.2,0.2,0.3c0-0.1,0-0.3,0-0.4c-0.1-0.5-0.3-0.9-0.6-1.4l0,0c0,0,0,0,0,0c0,0,0-0.1-0.1-0.1l0,0
							c-0.1-0.1-0.2-0.2-0.3-0.3c-0.7-0.6-1.3-0.8-1.9-0.8c-0.1,0-0.3,0-0.4,0.1c-0.4,0.2-0.7,0.9-0.7,1.8c0,0.7,0.1,1.6,0.3,2.6
							c0.1,0.2,0.1,0.4,0.2,0.7c0.1,0.4,0.2,0.8,0.4,1.1c0.1,0.3,0.2,0.5,0.4,0.8v0C6.1,19.8,7,21,7.8,21.8c1.1,1.1,2.1,1.6,2.8,1.3
							c0.5-0.2,0.7-0.8,0.8-1.5C11.4,21.3,11.4,21,11.4,20.7z"/>
						<path class="icon-svg-logo-14" d="M12,12.2c0,0-0.1-0.1-0.1-0.1c-0.1-0.1-0.3-0.2-0.5-0.2c-0.1,0-0.2,0-0.4,0c-0.8,0.1-1.8,0.8-2.9,1.8
							c-0.1,0-0.1,0.1-0.2,0.2c-0.4,0.4-0.8,0.8-1.2,1.3c-0.2,0.3-0.5,0.6-0.7,0.8c0,0,0,0.1-0.1,0.1c-0.1,0.2-0.3,0.3-0.4,0.5
							c-0.2,0.3-0.4,0.6-0.6,0.8c-1.4,2.2-2.1,4.3-1.6,5.2l0.2,0.3C3.9,23,4.2,23.1,4.5,23c0.6-0.1,1.3-0.5,2.1-1.1c0,0,0,0,0,0
							c0-0.1,0-0.1-0.1-0.2c-0.1-0.1-0.3-0.2-0.5-0.1h0c-0.4,0.3-0.8,0.5-1.1,0.6c-0.3,0.1-0.5,0.1-0.7,0c-0.5-0.4,0-2,1.2-3.9
							c0.2-0.3,0.3-0.5,0.5-0.8c0.2-0.3,0.4-0.6,0.7-0.9c0.2-0.2,0.4-0.4,0.5-0.7c0.2-0.3,0.5-0.6,0.7-0.8c1.3-1.4,2.5-2.3,3.2-2.4
							c0.2,0,0.3,0,0.4,0.1c0.3,0.2,0.3,0.8,0,1.7c0,0,0,0,0,0c0.1,0,0.2,0.1,0.2,0.1c0.2,0,0.4-0.2,0.5-0.6c0-0.1,0.1-0.3,0.1-0.5
							c0-0.2,0-0.3,0-0.5C12.3,12.6,12.2,12.4,12,12.2z"/>
						<path class="icon-svg-logo-14" d="M13.4,16.4L13.4,16.4c0,0,0-0.1,0-0.1c0,0,0,0,0,0c-0.3-0.9-2.7-1.4-5.5-1.2c-0.2,0-0.4,0-0.7,0.1
							c-0.1,0-0.3,0-0.4,0.1c-0.5,0.1-1,0.2-1.5,0.3c-0.3,0.1-0.5,0.1-0.8,0.2c-1.8,0.5-3,1.3-3.1,2c-0.1,0.3,0.3,0.8,0.9,1.1
							c0.1,0,0.2,0.1,0.4,0.1c0.5,0.1,0.9,0,1-0.3c0,0,0-0.1,0-0.1c-0.9-0.1-1.5-0.4-1.5-0.7c0-0.1,0.1-0.3,0.2-0.4
							c0.4-0.4,1.2-0.7,2.3-1c0.2-0.1,0.5-0.1,0.8-0.2c0.2,0,0.4-0.1,0.6-0.1c0.3-0.1,0.7-0.1,1.1-0.2c0,0,0,0,0,0
							c2.1-0.2,4-0.1,4.8,0.2c0.3,0.1,0.4,0.3,0.4,0.4c0,0.3-0.3,0.6-0.8,0.8c-0.1,0-0.1,0.2,0,0.2c0.2,0,0.6,0,0.9-0.2
							C13.1,17.1,13.4,16.8,13.4,16.4C13.4,16.4,13.4,16.4,13.4,16.4z"/>
						<path class="icon-svg-logo-14" d="M7.9,16.6c-0.3,0-0.6,0.3-0.7,0.6c0,0.4,0.2,0.7,0.6,0.7c0.3,0,0.6-0.3,0.7-0.6
							C8.5,16.9,8.3,16.6,7.9,16.6z"/>
					</g>
				</g>
			</g>
		</g>
	</g>
	<g>
		<g>
			<g>
				<g>
					<defs>
						<polygon id="ICONSVGLOGOID_3_" points="3.9,2 4.5,28.1 11.8,27.2 11.8,15.1 17.7,23.5 23.4,14.4 23,25.8 28.7,25.2 29.5,2.9 23.8,2.8 
							17.8,12.5 11.6,2.3 						"/>
					</defs>
					<clipPath id="ICONSVGLOGOID_4_">
						<use xlink:href="#ICONSVGLOGOID_3_"  style="overflow:visible;"/>
					</clipPath>
					<g class="icon-svg-logo-15">
						<path class="icon-svg-logo-14" d="M13.6,8.6c0-0.8-0.2-1.5-0.4-2c-0.3-0.9-0.8-1.5-1.3-1.6c1.2,2.5,1.5,4.9,0.8,5.3
							c-0.6,0.3-1.6-0.5-2.7-1.8C9.4,7.7,8.9,6.8,8.4,5.9C8.3,5.7,8.3,5.5,8.2,5.4C8.1,5.1,8,4.8,7.9,4.6C7.8,4.4,7.7,4.2,7.7,4.1
							C7.6,3.8,7.6,3.6,7.5,3.4C7.4,3,7.3,2.6,7.3,2.2c-0.2-1.3,0-2.3,0.5-2.5c0.6-0.2,1.5,0.6,2.5,2.1c0.1,0.1,0.1,0.2,0.2,0.3
							c0-0.1,0-0.3,0-0.4c-0.1-0.5-0.3-0.9-0.6-1.4l0,0c0,0,0,0,0,0c0,0,0-0.1-0.1-0.1l0,0C9.5,0,9.4-0.1,9.3-0.2C8.7-0.7,8-1,7.4-1
							c-0.1,0-0.3,0-0.4,0.1C6.6-0.7,6.4,0,6.4,1c0,0.7,0.1,1.6,0.3,2.6C6.8,3.8,6.8,4,6.9,4.2C7,4.6,7.2,5,7.3,5.4
							c0.1,0.3,0.2,0.5,0.4,0.8v0c0.7,1.5,1.5,2.7,2.4,3.5c1.1,1.1,2.1,1.6,2.8,1.3c0.5-0.2,0.7-0.8,0.8-1.5
							C13.6,9.2,13.6,8.9,13.6,8.6z"/>
						<path class="icon-svg-logo-14" d="M14.3,0.1c0,0-0.1-0.1-0.1-0.1c-0.1-0.1-0.3-0.2-0.5-0.2c-0.1,0-0.2,0-0.4,0c-0.8,0.1-1.8,0.8-2.9,1.8
							c-0.1,0-0.1,0.1-0.2,0.2C9.8,2.2,9.4,2.6,9,3.1C8.8,3.3,8.5,3.6,8.3,3.9c0,0,0,0.1-0.1,0.1C8.1,4.2,8,4.3,7.8,4.5
							C7.6,4.8,7.5,5.1,7.3,5.3c-1.4,2.3-2.1,4.3-1.6,5.2l0.2,0.3C6.1,11,6.4,11,6.8,10.9c0.6-0.1,1.3-0.5,2.1-1.1c0,0,0,0,0,0
							c0-0.1,0-0.1-0.1-0.2C8.7,9.5,8.5,9.4,8.3,9.4h0C7.9,9.8,7.5,10,7.2,10.1c-0.3,0.1-0.5,0.1-0.7,0c-0.5-0.4,0-2,1.2-3.9
							C7.8,5.9,8,5.6,8.2,5.3C8.4,5,8.6,4.7,8.8,4.4C9,4.2,9.2,4,9.4,3.8C9.6,3.5,9.8,3.2,10.1,3c1.3-1.4,2.5-2.3,3.2-2.4
							c0.2,0,0.3,0,0.4,0.1c0.3,0.2,0.3,0.8,0,1.7c0,0,0,0,0,0c0.1,0,0.2,0.1,0.2,0.1c0.2,0,0.4-0.2,0.5-0.6c0-0.1,0.1-0.3,0.1-0.5
							s0-0.3,0-0.5C14.5,0.5,14.4,0.3,14.3,0.1z"/>
						<path class="icon-svg-logo-14" d="M15.6,4.3L15.6,4.3c0,0,0-0.1,0-0.1c0,0,0,0,0,0c-0.3-0.9-2.7-1.4-5.5-1.2C9.8,3,9.6,3,9.4,3
							C9.3,3,9.1,3,9,3.1c-0.5,0.1-1,0.2-1.5,0.3C7.2,3.4,6.9,3.5,6.7,3.5c-1.7,0.5-3,1.3-3.1,2C3.5,5.9,3.9,6.3,4.5,6.6
							c0.1,0,0.2,0.1,0.4,0.1c0.5,0.1,0.9,0,1-0.3c0,0,0-0.1,0-0.1C5.1,6.2,4.5,6,4.5,5.6c0-0.1,0.1-0.3,0.2-0.4
							c0.4-0.4,1.2-0.7,2.3-1c0.2-0.1,0.5-0.1,0.8-0.2C7.9,4,8.1,4,8.3,3.9C8.7,3.9,9,3.8,9.4,3.8c0,0,0,0,0,0
							c2.1-0.2,4-0.1,4.8,0.2c0.3,0.1,0.4,0.3,0.4,0.4c0,0.3-0.3,0.6-0.8,0.8c-0.1,0-0.1,0.2,0,0.2c0.2,0,0.6,0,0.9-0.2
							C15.3,5.1,15.7,4.7,15.6,4.3C15.6,4.3,15.6,4.3,15.6,4.3z"/>
						<path class="icon-svg-logo-14" d="M10.2,4.5c-0.3,0-0.6,0.3-0.7,0.6c0,0.4,0.2,0.7,0.6,0.7c0.3,0,0.6-0.3,0.7-0.6
							C10.7,4.8,10.5,4.5,10.2,4.5z"/>
					</g>
				</g>
			</g>
		</g>
	</g>
	<g>
		<g>
			<g>
				<g>
					<defs>
						<polygon id="ICONSVGLOGOID_5_" points="3.9,2 4.5,28.1 11.8,27.2 11.8,15.1 17.7,23.5 23.4,14.4 23,25.8 28.7,25.2 29.5,2.9 23.8,2.8 
							17.8,12.5 11.6,2.3 						"/>
					</defs>
					<clipPath id="ICONSVGLOGOID_6_">
						<use xlink:href="#ICONSVGLOGOID_5_"  style="overflow:visible;"/>
					</clipPath>
					<g class="icon-svg-logo-16">
						<path class="icon-svg-logo-14" d="M12.1,32.7c0-0.8-0.2-1.5-0.4-2c-0.3-0.9-0.8-1.5-1.3-1.6c1.2,2.5,1.5,4.9,0.8,5.3
							c-0.6,0.3-1.6-0.5-2.7-1.8c-0.6-0.7-1.1-1.5-1.6-2.5c-0.1-0.2-0.2-0.3-0.2-0.5c-0.1-0.3-0.2-0.5-0.3-0.8
							c-0.1-0.2-0.1-0.3-0.2-0.5C6.1,28,6,27.8,6,27.5c-0.1-0.4-0.2-0.8-0.2-1.2c-0.2-1.3,0-2.3,0.5-2.5c0.6-0.2,1.5,0.6,2.5,2.1
							c0.1,0.1,0.1,0.2,0.2,0.3c0-0.1,0-0.3,0-0.4c-0.1-0.5-0.3-0.9-0.6-1.4l0,0c0,0,0,0,0,0c0,0,0-0.1-0.1-0.1l0,0
							C8,24.2,7.9,24.1,7.8,24c-0.7-0.6-1.3-0.8-1.9-0.8c-0.1,0-0.3,0-0.4,0.1c-0.4,0.2-0.7,0.9-0.7,1.8c0,0.7,0.1,1.6,0.3,2.6
							c0.1,0.2,0.1,0.4,0.2,0.7c0.1,0.4,0.2,0.8,0.4,1.1c0.1,0.3,0.2,0.5,0.4,0.8v0c0.7,1.5,1.5,2.7,2.4,3.5
							c1.1,1.1,2.1,1.6,2.8,1.3c0.5-0.2,0.7-0.8,0.8-1.5C12.1,33.4,12.1,33.1,12.1,32.7z"/>
						<path class="icon-svg-logo-14" d="M12.7,24.3c0,0-0.1-0.1-0.1-0.1c-0.1-0.1-0.3-0.2-0.5-0.2c-0.1,0-0.2,0-0.4,0c-0.8,0.1-1.8,0.8-2.9,1.8
							c-0.1,0-0.1,0.1-0.2,0.2c-0.4,0.4-0.8,0.8-1.2,1.3c-0.2,0.3-0.5,0.6-0.7,0.8c0,0,0,0.1-0.1,0.1c-0.1,0.2-0.3,0.3-0.4,0.5
							c-0.2,0.3-0.4,0.6-0.6,0.8c-1.4,2.2-2.1,4.3-1.6,5.2l0.2,0.3c0.2,0.2,0.5,0.2,0.9,0.1c0.6-0.1,1.3-0.5,2.1-1.1c0,0,0,0,0,0
							c0-0.1,0-0.1-0.1-0.2c-0.1-0.1-0.3-0.2-0.5-0.1h0c-0.4,0.3-0.8,0.5-1.1,0.6c-0.3,0.1-0.5,0.1-0.7,0c-0.5-0.4,0-2,1.2-3.9
							c0.2-0.3,0.3-0.5,0.5-0.8c0.2-0.3,0.4-0.6,0.7-0.9c0.2-0.2,0.4-0.4,0.5-0.7c0.2-0.3,0.5-0.6,0.7-0.8c1.3-1.4,2.5-2.3,3.2-2.4
							c0.2,0,0.3,0,0.4,0.1c0.3,0.2,0.3,0.8,0,1.7c0,0,0,0,0,0c0.1,0,0.2,0.1,0.2,0.1c0.2,0,0.4-0.2,0.5-0.6c0-0.1,0.1-0.3,0.1-0.5
							s0-0.3,0-0.5C13,24.7,12.9,24.5,12.7,24.3z"/>
						<path class="icon-svg-logo-14" d="M14.1,28.5C14.1,28.5,14.1,28.5,14.1,28.5c0,0,0-0.1,0-0.1c0,0,0,0,0,0c-0.3-0.9-2.7-1.4-5.5-1.2
							c-0.2,0-0.4,0-0.7,0.1c-0.1,0-0.3,0-0.4,0.1c-0.5,0.1-1,0.2-1.5,0.3c-0.3,0.1-0.5,0.1-0.8,0.2c-1.8,0.5-3,1.3-3.1,2
							C2,30,2.4,30.5,3,30.8c0.1,0,0.2,0.1,0.4,0.1c0.5,0.1,0.9,0,1-0.3c0,0,0-0.1,0-0.1c-0.9-0.1-1.5-0.4-1.5-0.7
							c0-0.1,0.1-0.3,0.2-0.4c0.4-0.4,1.2-0.7,2.3-1c0.2-0.1,0.5-0.1,0.8-0.2c0.2,0,0.4-0.1,0.6-0.1C7.1,28,7.5,28,7.8,27.9
							c0,0,0,0,0,0c2.1-0.2,4-0.1,4.8,0.2c0.3,0.1,0.4,0.3,0.4,0.4c0,0.3-0.3,0.6-0.8,0.8c-0.1,0-0.1,0.2,0,0.2c0.2,0,0.6,0,0.9-0.2
							C13.7,29.2,14.1,28.8,14.1,28.5C14.1,28.5,14.1,28.5,14.1,28.5z"/>
						<path class="icon-svg-logo-14" d="M8.6,28.7c-0.3,0-0.6,0.3-0.7,0.6C8,29.7,8.2,30,8.5,30c0.3,0,0.6-0.3,0.7-0.6C9.2,29,9,28.7,8.6,28.7z"
							/>
					</g>
				</g>
			</g>
		</g>
	</g>
	<g>
		<g>
			<g>
				<g>
					<defs>
						<polygon id="ICONSVGLOGOID_7_" points="3.9,2 4.5,28.1 11.8,27.2 11.8,15.1 17.7,23.5 23.4,14.4 23,25.8 28.7,25.2 29.5,2.9 23.8,2.8 
							17.8,12.5 11.6,2.3 						"/>
					</defs>
					<clipPath id="ICONSVGLOGOID_8_">
						<use xlink:href="#ICONSVGLOGOID_7_"  style="overflow:visible;"/>
					</clipPath>
					<g class="icon-svg-logo-17">
						<path class="icon-svg-logo-14" d="M22.5,18c0-0.7-0.2-1.4-0.4-2c-0.3-0.8-0.8-1.4-1.2-1.6c1.1,2.5,1.5,4.8,0.7,5.1
							c-0.5,0.3-1.6-0.4-2.6-1.8c-0.5-0.7-1.1-1.5-1.5-2.4c-0.1-0.2-0.2-0.3-0.2-0.5c-0.1-0.3-0.2-0.5-0.3-0.8
							c-0.1-0.2-0.1-0.3-0.2-0.5c-0.1-0.2-0.1-0.4-0.2-0.7c-0.1-0.4-0.2-0.8-0.2-1.1c-0.2-1.2,0-2.2,0.4-2.4c0.6-0.2,1.5,0.6,2.4,2
							c0.1,0.1,0.1,0.2,0.2,0.3c0-0.1,0-0.3,0-0.4c-0.1-0.4-0.3-0.9-0.6-1.3l0,0c0,0,0,0,0,0c0,0,0-0.1-0.1-0.1l0,0
							c-0.1-0.1-0.2-0.2-0.3-0.3C17.7,9,17,8.8,16.5,8.8c-0.1,0-0.2,0-0.4,0.1c-0.4,0.2-0.6,0.8-0.7,1.7c0,0.7,0.1,1.6,0.3,2.5
							c0,0.2,0.1,0.4,0.2,0.6c0.1,0.4,0.2,0.7,0.4,1.1c0.1,0.3,0.2,0.5,0.3,0.8v0c0.7,1.4,1.5,2.6,2.3,3.4c1,1,2,1.5,2.7,1.2
							c0.5-0.2,0.7-0.7,0.8-1.5C22.5,18.6,22.5,18.3,22.5,18z"/>
						<path class="icon-svg-logo-14" d="M23.1,9.8c0,0-0.1-0.1-0.1-0.1c-0.1-0.1-0.3-0.2-0.4-0.2c-0.1,0-0.2,0-0.3,0c-0.7,0.1-1.8,0.8-2.8,1.7
							c0,0-0.1,0.1-0.2,0.2c-0.4,0.4-0.8,0.8-1.2,1.2c-0.2,0.3-0.4,0.5-0.7,0.8c0,0,0,0.1-0.1,0.1c-0.1,0.2-0.2,0.3-0.4,0.5
							c-0.2,0.3-0.4,0.5-0.5,0.8c-1.4,2.2-2,4.2-1.6,5l0.2,0.2c0.2,0.2,0.5,0.2,0.8,0.1c0.6-0.1,1.3-0.5,2-1.1c0,0,0,0,0,0
							c0-0.1,0-0.1-0.1-0.2c-0.1-0.1-0.3-0.2-0.5-0.1h0c-0.4,0.3-0.8,0.5-1.1,0.6c-0.3,0.1-0.5,0.1-0.7,0c-0.5-0.4,0-1.9,1.1-3.8
							c0.2-0.3,0.3-0.5,0.5-0.8c0.2-0.3,0.4-0.6,0.6-0.9c0.2-0.2,0.3-0.4,0.5-0.6c0.2-0.3,0.5-0.5,0.7-0.8c1.2-1.3,2.4-2.2,3.1-2.3
							c0.2,0,0.3,0,0.4,0.1c0.3,0.2,0.2,0.8,0,1.6c0,0,0,0,0,0c0.1,0,0.1,0.1,0.2,0.1c0.2,0,0.4-0.2,0.5-0.6c0-0.1,0.1-0.3,0.1-0.5
							c0-0.2,0-0.3,0-0.4C23.3,10.3,23.2,10,23.1,9.8z"/>
						<path class="icon-svg-logo-14" d="M24.4,13.9L24.4,13.9c0,0,0-0.1,0-0.1c0,0,0,0,0,0c-0.3-0.9-2.6-1.4-5.4-1.1c-0.2,0-0.4,0-0.6,0.1
							c-0.1,0-0.3,0-0.4,0c-0.5,0.1-1,0.2-1.5,0.3c-0.3,0.1-0.5,0.1-0.8,0.2c-1.7,0.5-2.9,1.2-3,1.9c-0.1,0.3,0.3,0.8,0.8,1
							c0.1,0,0.2,0.1,0.4,0.1c0.5,0.1,0.9,0,1-0.3c0,0,0-0.1,0-0.1c-0.9-0.1-1.4-0.4-1.4-0.7c0-0.1,0.1-0.3,0.2-0.4
							c0.4-0.3,1.1-0.7,2.2-1c0.2-0.1,0.5-0.1,0.8-0.2c0.2,0,0.4-0.1,0.6-0.1c0.3-0.1,0.7-0.1,1-0.2c0,0,0,0,0,0
							c2.1-0.2,3.9-0.1,4.7,0.2c0.2,0.1,0.4,0.3,0.4,0.4c0,0.3-0.3,0.5-0.8,0.8c-0.1,0-0.1,0.2,0,0.2c0.2,0,0.5,0,0.8-0.2
							C24.1,14.6,24.4,14.2,24.4,13.9C24.4,13.9,24.4,13.9,24.4,13.9z"/>
						<path class="icon-svg-logo-14" d="M19.1,14.1c-0.3,0-0.6,0.2-0.6,0.6c0,0.4,0.2,0.7,0.5,0.7c0.3,0,0.6-0.2,0.6-0.6
							C19.7,14.4,19.4,14.1,19.1,14.1z"/>
					</g>
				</g>
			</g>
		</g>
	</g>
	<g>
		<g>
			<g>
				<g>
					<defs>
						<polygon id="ICONSVGLOGOID_9_" points="3.9,2 4.5,28.1 11.8,27.2 11.8,15.1 17.7,23.5 23.4,14.4 23,25.8 28.7,25.2 29.5,2.9 23.8,2.8 
							17.8,12.5 11.6,2.3 						"/>
					</defs>
					<clipPath id="ICONSVGLOGOID_10_">
						<use xlink:href="#ICONSVGLOGOID_9_"  style="overflow:visible;"/>
					</clipPath>
					<g class="icon-svg-logo-18">
						<path class="icon-svg-logo-14" d="M31.5,8.8c0-0.8-0.2-1.5-0.4-2c-0.3-0.9-0.8-1.5-1.3-1.6c1.2,2.5,1.5,4.9,0.8,5.3
							c-0.6,0.3-1.6-0.5-2.7-1.8c-0.6-0.7-1.1-1.5-1.6-2.5C26.2,6,26.1,5.8,26,5.6c-0.1-0.3-0.2-0.5-0.3-0.8
							c-0.1-0.2-0.1-0.3-0.2-0.5c-0.1-0.2-0.1-0.5-0.2-0.7c-0.1-0.4-0.2-0.8-0.2-1.2c-0.2-1.3,0-2.3,0.5-2.5
							c0.6-0.2,1.5,0.6,2.5,2.1c0.1,0.1,0.1,0.2,0.2,0.3c0-0.1,0-0.3,0-0.4C28.2,1.5,28,1,27.6,0.5l0,0c0,0,0,0,0,0
							c0,0,0-0.1-0.1-0.1l0,0c-0.1-0.1-0.2-0.2-0.3-0.3c-0.7-0.6-1.3-0.8-1.9-0.8c-0.1,0-0.3,0-0.4,0.1c-0.4,0.2-0.7,0.9-0.7,1.8
							c0,0.7,0.1,1.6,0.3,2.6c0.1,0.2,0.1,0.4,0.2,0.7c0.1,0.4,0.2,0.8,0.4,1.1c0.1,0.3,0.2,0.5,0.4,0.8v0c0.7,1.5,1.5,2.7,2.4,3.5
							c1.1,1.1,2.1,1.6,2.8,1.3c0.5-0.2,0.7-0.8,0.8-1.5C31.5,9.5,31.5,9.2,31.5,8.8z"/>
						<path class="icon-svg-logo-14" d="M32.1,0.4c0,0-0.1-0.1-0.1-0.1c-0.1-0.1-0.3-0.2-0.5-0.2c-0.1,0-0.2,0-0.4,0c-0.8,0.1-1.8,0.8-2.9,1.8
							c-0.1,0-0.1,0.1-0.2,0.2c-0.4,0.4-0.8,0.8-1.2,1.3c-0.2,0.3-0.5,0.6-0.7,0.8c0,0,0,0.1-0.1,0.1c-0.1,0.2-0.3,0.3-0.4,0.5
							c-0.2,0.3-0.4,0.6-0.6,0.8c-1.4,2.2-2.1,4.3-1.6,5.2l0.2,0.3c0.2,0.2,0.5,0.2,0.9,0.1c0.6-0.1,1.3-0.5,2.1-1.1c0,0,0,0,0,0
							c0-0.1,0-0.1-0.1-0.2c-0.1-0.1-0.3-0.2-0.5-0.1h0c-0.4,0.3-0.8,0.5-1.1,0.6c-0.3,0.1-0.5,0.1-0.7,0c-0.5-0.4,0-2,1.2-3.9
							c0.2-0.3,0.3-0.5,0.5-0.8c0.2-0.3,0.4-0.6,0.7-0.9C26.9,4.4,27,4.2,27.2,4c0.2-0.3,0.5-0.6,0.7-0.8c1.3-1.4,2.5-2.3,3.2-2.4
							c0.2,0,0.3,0,0.4,0.1c0.3,0.2,0.3,0.8,0,1.7c0,0,0,0,0,0c0.1,0,0.2,0.1,0.2,0.1c0.2,0,0.4-0.2,0.5-0.6c0-0.1,0.1-0.3,0.1-0.5
							s0-0.3,0-0.5C32.3,0.8,32.3,0.5,32.1,0.4z"/>
						<path class="icon-svg-logo-14" d="M33.5,4.6C33.5,4.6,33.5,4.5,33.5,4.6c0,0,0-0.1,0-0.1c0,0,0,0,0,0c-0.3-0.9-2.7-1.4-5.5-1.2
							c-0.2,0-0.4,0-0.7,0.1c-0.1,0-0.3,0-0.4,0.1c-0.5,0.1-1,0.2-1.5,0.3c-0.3,0.1-0.5,0.1-0.8,0.2c-1.8,0.5-3,1.3-3.1,2
							c-0.1,0.3,0.3,0.8,0.9,1.1c0.1,0,0.2,0.1,0.4,0.1c0.5,0.1,0.9,0,1-0.3c0,0,0-0.1,0-0.1c-0.9-0.1-1.5-0.4-1.5-0.7
							c0-0.1,0.1-0.3,0.2-0.4c0.4-0.4,1.2-0.7,2.3-1c0.2-0.1,0.5-0.1,0.8-0.2c0.2,0,0.4-0.1,0.6-0.1c0.3-0.1,0.7-0.1,1.1-0.2
							c0,0,0,0,0,0c2.1-0.2,4-0.1,4.8,0.2c0.3,0.1,0.4,0.3,0.4,0.4c0,0.3-0.3,0.6-0.8,0.8c-0.1,0-0.1,0.2,0,0.2c0.2,0,0.6,0,0.9-0.2
							C33.1,5.3,33.5,4.9,33.5,4.6C33.5,4.6,33.5,4.6,33.5,4.6z"/>
						<path class="icon-svg-logo-14" d="M28,4.7c-0.3,0-0.6,0.3-0.7,0.6c0,0.4,0.2,0.7,0.6,0.7s0.6-0.3,0.7-0.6C28.6,5.1,28.3,4.8,28,4.7z"/>
					</g>
				</g>
			</g>
		</g>
	</g>
	<g>
		<g>
			<g>
				<g>
					<defs>
						<polygon id="ICONSVGLOGOID_11_" points="3.9,2 4.5,28.1 11.8,27.2 11.8,15.1 17.7,23.5 23.4,14.4 23,25.8 28.7,25.2 29.5,2.9 
							23.8,2.8 17.8,12.5 11.6,2.3 						"/>
					</defs>
					<clipPath id="ICONSVGLOGOID_12_">
						<use xlink:href="#ICONSVGLOGOID_11_"  style="overflow:visible;"/>
					</clipPath>
					<g class="icon-svg-logo-19">
						<path class="icon-svg-logo-14" d="M32.4,20.7c0-0.8-0.2-1.5-0.4-2c-0.3-0.9-0.8-1.5-1.3-1.6c1.2,2.5,1.5,4.9,0.8,5.3
							c-0.6,0.3-1.6-0.5-2.7-1.8c-0.6-0.7-1.1-1.5-1.6-2.5c-0.1-0.2-0.2-0.3-0.2-0.5c-0.1-0.3-0.2-0.5-0.3-0.8
							c-0.1-0.2-0.1-0.3-0.2-0.5c-0.1-0.2-0.1-0.5-0.2-0.7c-0.1-0.4-0.2-0.8-0.2-1.2c-0.2-1.3,0-2.3,0.5-2.5
							c0.6-0.2,1.5,0.6,2.5,2.1c0.1,0.1,0.1,0.2,0.2,0.3c0-0.1,0-0.3,0-0.4c-0.1-0.5-0.3-0.9-0.6-1.4l0,0c0,0,0,0,0,0
							c0,0,0-0.1-0.1-0.1l0,0c-0.1-0.1-0.2-0.2-0.3-0.3c-0.7-0.6-1.3-0.8-1.9-0.8c-0.1,0-0.3,0-0.4,0.1c-0.4,0.2-0.7,0.9-0.7,1.8
							c0,0.7,0.1,1.6,0.3,2.6c0.1,0.2,0.1,0.4,0.2,0.7c0.1,0.4,0.2,0.8,0.4,1.1c0.1,0.3,0.2,0.5,0.4,0.8v0c0.7,1.5,1.5,2.7,2.4,3.5
							c1.1,1.1,2.1,1.6,2.8,1.3c0.5-0.2,0.7-0.8,0.8-1.5C32.4,21.3,32.4,21,32.4,20.7z"/>
						<path class="icon-svg-logo-14" d="M33,12.2c0,0-0.1-0.1-0.1-0.1c-0.1-0.1-0.3-0.2-0.5-0.2c-0.1,0-0.2,0-0.4,0c-0.8,0.1-1.8,0.8-2.9,1.8
							c-0.1,0-0.1,0.1-0.2,0.2c-0.4,0.4-0.8,0.8-1.2,1.3c-0.2,0.3-0.5,0.6-0.7,0.8c0,0,0,0.1-0.1,0.1c-0.1,0.2-0.3,0.3-0.4,0.5
							c-0.2,0.3-0.4,0.6-0.6,0.8c-1.4,2.2-2.1,4.3-1.6,5.2l0.2,0.3c0.2,0.2,0.5,0.2,0.9,0.1c0.6-0.1,1.3-0.5,2.1-1.1c0,0,0,0,0,0
							c0-0.1,0-0.1-0.1-0.2c-0.1-0.1-0.3-0.2-0.5-0.1h0c-0.4,0.3-0.8,0.5-1.1,0.6c-0.3,0.1-0.5,0.1-0.7,0c-0.5-0.4,0-2,1.2-3.9
							c0.2-0.3,0.3-0.5,0.5-0.8c0.2-0.3,0.4-0.6,0.7-0.9c0.2-0.2,0.4-0.4,0.5-0.7c0.2-0.3,0.5-0.6,0.7-0.8c1.3-1.4,2.5-2.3,3.2-2.4
							c0.2,0,0.3,0,0.4,0.1c0.3,0.2,0.3,0.8,0,1.7c0,0,0,0,0,0c0.1,0,0.2,0.1,0.2,0.1c0.2,0,0.4-0.2,0.5-0.6c0-0.1,0.1-0.3,0.1-0.5
							c0-0.2,0-0.3,0-0.5C33.3,12.6,33.2,12.4,33,12.2z"/>
						<path class="icon-svg-logo-14" d="M34.4,16.4L34.4,16.4c0,0,0-0.1,0-0.1c0,0,0,0,0,0c-0.3-0.9-2.7-1.4-5.5-1.2c-0.2,0-0.4,0-0.7,0.1
							c-0.1,0-0.3,0-0.4,0.1c-0.5,0.1-1,0.2-1.5,0.3c-0.3,0.1-0.5,0.1-0.8,0.2c-1.8,0.5-3,1.3-3.1,2c-0.1,0.3,0.3,0.8,0.9,1.1
							c0.1,0,0.2,0.1,0.4,0.1c0.5,0.1,0.9,0,1-0.3c0,0,0-0.1,0-0.1c-0.9-0.1-1.5-0.4-1.5-0.7c0-0.1,0.1-0.3,0.2-0.4
							c0.4-0.4,1.2-0.7,2.3-1c0.2-0.1,0.5-0.1,0.8-0.2c0.2,0,0.4-0.1,0.6-0.1c0.3-0.1,0.7-0.1,1.1-0.2c0,0,0,0,0,0
							c2.1-0.2,4-0.1,4.8,0.2c0.3,0.1,0.4,0.3,0.4,0.4c0,0.3-0.3,0.6-0.8,0.8c-0.1,0-0.1,0.2,0,0.2c0.2,0,0.6,0,0.9-0.2
							C34.1,17.1,34.4,16.8,34.4,16.4C34.4,16.4,34.4,16.4,34.4,16.4z"/>
						<path class="icon-svg-logo-14" d="M28.9,16.6c-0.3,0-0.6,0.3-0.7,0.6c0,0.4,0.2,0.7,0.6,0.7c0.3,0,0.6-0.3,0.7-0.6
							C29.5,16.9,29.3,16.6,28.9,16.6z"/>
					</g>
				</g>
			</g>
		</g>
	</g>
	<g>
		<g>
			<g>
				<g>
					<defs>
						<polygon id="ICONSVGLOGOID_13_" points="3.9,2 4.5,28.1 11.8,27.2 11.8,15.1 17.7,23.5 23.4,14.4 23,25.8 28.7,25.2 29.5,2.9 
							23.8,2.8 17.8,12.5 11.6,2.3 						"/>
					</defs>
					<clipPath id="ICONSVGLOGOID_14_">
						<use xlink:href="#ICONSVGLOGOID_13_"  style="overflow:visible;"/>
					</clipPath>
					<g class="icon-svg-logo-20">
						<path class="icon-svg-logo-14" d="M31.1,32.9c0-0.8-0.2-1.5-0.4-2c-0.3-0.9-0.8-1.5-1.3-1.6c1.2,2.5,1.5,4.9,0.8,5.3
							c-0.6,0.3-1.6-0.5-2.7-1.8c-0.6-0.7-1.1-1.5-1.6-2.5c-0.1-0.2-0.2-0.3-0.2-0.5c-0.1-0.3-0.2-0.5-0.3-0.8
							c-0.1-0.2-0.1-0.3-0.2-0.5c-0.1-0.2-0.1-0.5-0.2-0.7c-0.1-0.4-0.2-0.8-0.2-1.2c-0.2-1.3,0-2.3,0.5-2.5
							c0.6-0.2,1.5,0.6,2.5,2.1c0.1,0.1,0.1,0.2,0.2,0.3c0-0.1,0-0.3,0-0.4c-0.1-0.5-0.3-0.9-0.6-1.4l0,0c0,0,0,0,0,0
							c0,0,0-0.1-0.1-0.1l0,0c-0.1-0.1-0.2-0.2-0.3-0.3c-0.7-0.6-1.3-0.8-1.9-0.8c-0.1,0-0.3,0-0.4,0.1c-0.4,0.2-0.7,0.9-0.7,1.8
							c0,0.7,0.1,1.6,0.3,2.6c0.1,0.2,0.1,0.4,0.2,0.7c0.1,0.4,0.2,0.8,0.4,1.1c0.1,0.3,0.2,0.5,0.4,0.8v0c0.7,1.5,1.5,2.7,2.4,3.5
							c1.1,1.1,2.1,1.6,2.8,1.3c0.5-0.2,0.7-0.8,0.8-1.5C31.1,33.5,31.1,33.2,31.1,32.9z"/>
						<path class="icon-svg-logo-14" d="M31.7,24.4c0,0-0.1-0.1-0.1-0.1c-0.1-0.1-0.3-0.2-0.5-0.2c-0.1,0-0.2,0-0.4,0c-0.8,0.1-1.8,0.8-2.9,1.8
							c-0.1,0-0.1,0.1-0.2,0.2c-0.4,0.4-0.8,0.8-1.2,1.3c-0.2,0.3-0.5,0.6-0.7,0.8c0,0,0,0.1-0.1,0.1c-0.1,0.2-0.3,0.3-0.4,0.5
							c-0.2,0.3-0.4,0.6-0.6,0.8c-1.4,2.2-2.1,4.3-1.6,5.2l0.2,0.3c0.2,0.2,0.5,0.2,0.9,0.1c0.6-0.1,1.3-0.5,2.1-1.1c0,0,0,0,0,0
							c0-0.1,0-0.1-0.1-0.2c-0.1-0.1-0.3-0.2-0.5-0.1h0c-0.4,0.3-0.8,0.5-1.1,0.6c-0.3,0.1-0.5,0.1-0.7,0c-0.5-0.4,0-2,1.2-3.9
							c0.2-0.3,0.3-0.5,0.5-0.8c0.2-0.3,0.4-0.6,0.7-0.9c0.2-0.2,0.4-0.4,0.5-0.7c0.2-0.3,0.5-0.6,0.7-0.8c1.3-1.4,2.5-2.3,3.2-2.4
							c0.2,0,0.3,0,0.4,0.1c0.3,0.2,0.3,0.8,0,1.7c0,0,0,0,0,0c0.1,0,0.2,0.1,0.2,0.1c0.2,0,0.4-0.2,0.5-0.6c0-0.1,0.1-0.3,0.1-0.5
							c0-0.2,0-0.3,0-0.5C32,24.8,31.9,24.6,31.7,24.4z"/>
						<path class="icon-svg-logo-14" d="M33.1,28.6C33.1,28.6,33.1,28.6,33.1,28.6c0,0,0-0.1,0-0.1c0,0,0,0,0,0c-0.3-0.9-2.7-1.4-5.5-1.2
							c-0.2,0-0.4,0-0.7,0.1c-0.1,0-0.3,0-0.4,0.1c-0.5,0.1-1,0.2-1.5,0.3c-0.3,0.1-0.5,0.1-0.8,0.2c-1.8,0.5-3,1.3-3.1,2
							c-0.1,0.3,0.3,0.8,0.9,1.1c0.1,0,0.2,0.1,0.4,0.1c0.5,0.1,0.9,0,1-0.3c0,0,0-0.1,0-0.1c-0.9-0.1-1.5-0.4-1.5-0.7
							c0-0.1,0.1-0.3,0.2-0.4c0.4-0.4,1.2-0.7,2.3-1c0.2-0.1,0.5-0.1,0.8-0.2c0.2,0,0.4-0.1,0.6-0.1c0.3-0.1,0.7-0.1,1.1-0.2
							c0,0,0,0,0,0c2.1-0.2,4-0.1,4.8,0.2c0.3,0.1,0.4,0.3,0.4,0.4c0,0.3-0.3,0.6-0.8,0.8c-0.1,0-0.1,0.2,0,0.2c0.2,0,0.6,0,0.9-0.2
							C32.8,29.3,33.1,29,33.1,28.6C33.1,28.6,33.1,28.6,33.1,28.6z"/>
						<path class="icon-svg-logo-14" d="M27.6,28.8c-0.3,0-0.6,0.3-0.7,0.6c0,0.4,0.2,0.7,0.6,0.7c0.3,0,0.6-0.3,0.7-0.6
							C28.2,29.1,28,28.8,27.6,28.8z"/>
					</g>
				</g>
			</g>
		</g>
	</g>
</g>
</svg>
