<svg xmlns="http://www.w3.org/2000/svg" viewBox="0 0 16 16"><defs><style>.svg-react-material-1{fill:rgb(132, 241, 246);opacity:0.55;isolation:isolate;}.svg-react-material-2{fill:rgb(36, 136, 199);}.svg-react-material-3{fill:rgb(132, 241, 246);stroke:rgb(132, 241, 246);stroke-miterlimit:10;stroke-width:0.06px;}</style></defs><title>icon2</title><polygon class="svg-react-material-1" points="5.6 9.8 6.8 11.6 5.6 9.8 5.6 9.8"/><polygon class="svg-react-material-2" points="1 0.4 0.1 1 0.5 14.3 1.4 15.6 1 0.4"/><polygon class="svg-react-material-2" points="5.6 8 5.6 9.8 6.8 11.6 9 12.9 5.6 8"/><polygon class="svg-react-material-2" points="12.3 7.6 10 11.4 10.1 13.2 12.1 14.3 12.3 7.6"/><polygon class="svg-react-material-2" points="12.6 0.9 10.2 1.5 8 4.8 9.1 6.5 12.6 0.9"/><polygon class="svg-react-material-3" points="12.6 0.9 9.1 6.5 8 4.8 5.4 0.6 1 0.4 1.4 15.6 5.6 15.1 5.6 9.8 5.6 9.8 5.6 8 9 12.9 10 11.4 12.3 7.6 12.1 14.3 15.4 13.9 15.9 0.9 12.6 0.9"/></svg>